<mxfile host="app.diagrams.net" agent="Mozilla/5.0 (Windows NT 10.0; Win64; x64; rv:139.0) Gecko/20100101 Firefox/139.0" version="27.1.4">
  <diagram name="Wasserstoff RAG Architecture" id="HpVjR0ond4p78AYy8tdQ">
    <mxGraphModel dx="981" dy="467" grid="1" gridSize="10" guides="1" tooltips="1" connect="1" arrows="1" fold="1" page="1" pageScale="1" pageWidth="850" pageHeight="1100" math="0" shadow="0">
      <root>
        <mxCell id="0" />
        <mxCell id="1" parent="0" />
        <mxCell id="_SefdVnp_jdlIpqQqYzS-5" style="edgeStyle=orthogonalEdgeStyle;rounded=0;orthogonalLoop=1;jettySize=auto;html=1;entryX=0.5;entryY=0;entryDx=0;entryDy=0;" parent="1" source="_SefdVnp_jdlIpqQqYzS-1" target="_SefdVnp_jdlIpqQqYzS-8" edge="1">
          <mxGeometry relative="1" as="geometry">
            <mxPoint x="199.99999999999977" y="200" as="targetPoint" />
          </mxGeometry>
        </mxCell>
        <mxCell id="_SefdVnp_jdlIpqQqYzS-7" style="edgeStyle=orthogonalEdgeStyle;rounded=0;orthogonalLoop=1;jettySize=auto;html=1;entryX=0.5;entryY=0;entryDx=0;entryDy=0;" parent="1" source="_SefdVnp_jdlIpqQqYzS-1" target="_SefdVnp_jdlIpqQqYzS-21" edge="1">
          <mxGeometry relative="1" as="geometry">
            <mxPoint x="720.0000000000002" y="200" as="targetPoint" />
          </mxGeometry>
        </mxCell>
        <mxCell id="_SefdVnp_jdlIpqQqYzS-1" value="pdf or scanned image classifier" style="rounded=0;whiteSpace=wrap;html=1;" parent="1" vertex="1">
          <mxGeometry x="370" y="120" width="120" height="60" as="geometry" />
        </mxCell>
        <mxCell id="_SefdVnp_jdlIpqQqYzS-4" style="edgeStyle=orthogonalEdgeStyle;rounded=0;orthogonalLoop=1;jettySize=auto;html=1;entryX=0.5;entryY=0;entryDx=0;entryDy=0;" parent="1" source="_SefdVnp_jdlIpqQqYzS-3" target="_SefdVnp_jdlIpqQqYzS-1" edge="1">
          <mxGeometry relative="1" as="geometry" />
        </mxCell>
        <mxCell id="_SefdVnp_jdlIpqQqYzS-3" value="file" style="shape=note;whiteSpace=wrap;html=1;backgroundOutline=1;darkOpacity=0.05;" parent="1" vertex="1">
          <mxGeometry x="410" y="40" width="40" height="50" as="geometry" />
        </mxCell>
        <mxCell id="_SefdVnp_jdlIpqQqYzS-12" style="edgeStyle=orthogonalEdgeStyle;rounded=0;orthogonalLoop=1;jettySize=auto;html=1;" parent="1" source="_SefdVnp_jdlIpqQqYzS-8" target="_SefdVnp_jdlIpqQqYzS-13" edge="1">
          <mxGeometry relative="1" as="geometry">
            <mxPoint x="199.99999999999977" y="360" as="targetPoint" />
          </mxGeometry>
        </mxCell>
        <mxCell id="_SefdVnp_jdlIpqQqYzS-8" value="pdf embedding" style="rounded=1;whiteSpace=wrap;html=1;" parent="1" vertex="1">
          <mxGeometry x="140" y="230" width="120" height="60" as="geometry" />
        </mxCell>
        <mxCell id="_SefdVnp_jdlIpqQqYzS-10" value="prompt" style="text;html=1;align=center;verticalAlign=middle;whiteSpace=wrap;rounded=0;" parent="1" vertex="1">
          <mxGeometry x="270" y="50" width="60" height="30" as="geometry" />
        </mxCell>
        <mxCell id="_SefdVnp_jdlIpqQqYzS-15" style="edgeStyle=orthogonalEdgeStyle;rounded=0;orthogonalLoop=1;jettySize=auto;html=1;entryX=0.5;entryY=0;entryDx=0;entryDy=0;" parent="1" source="_SefdVnp_jdlIpqQqYzS-13" target="_SefdVnp_jdlIpqQqYzS-16" edge="1">
          <mxGeometry relative="1" as="geometry">
            <mxPoint x="199.99999999999977" y="520" as="targetPoint" />
          </mxGeometry>
        </mxCell>
        <mxCell id="_SefdVnp_jdlIpqQqYzS-13" value="&lt;div&gt;Model&lt;/div&gt;" style="rounded=1;whiteSpace=wrap;html=1;" parent="1" vertex="1">
          <mxGeometry x="409.9999999999998" y="380" width="120" height="60" as="geometry" />
        </mxCell>
        <mxCell id="_SefdVnp_jdlIpqQqYzS-18" style="edgeStyle=orthogonalEdgeStyle;rounded=0;orthogonalLoop=1;jettySize=auto;html=1;" parent="1" source="_SefdVnp_jdlIpqQqYzS-16" target="_SefdVnp_jdlIpqQqYzS-19" edge="1">
          <mxGeometry relative="1" as="geometry">
            <mxPoint x="199.99999999999977" y="610" as="targetPoint" />
          </mxGeometry>
        </mxCell>
        <mxCell id="_SefdVnp_jdlIpqQqYzS-16" value="top 2 context" style="rounded=1;whiteSpace=wrap;html=1;" parent="1" vertex="1">
          <mxGeometry x="410" y="540" width="120" height="60" as="geometry" />
        </mxCell>
        <mxCell id="_SefdVnp_jdlIpqQqYzS-26" style="edgeStyle=orthogonalEdgeStyle;rounded=0;orthogonalLoop=1;jettySize=auto;html=1;exitX=0.5;exitY=1;exitDx=0;exitDy=0;entryX=0.554;entryY=0.002;entryDx=0;entryDy=0;entryPerimeter=0;" parent="1" source="_SefdVnp_jdlIpqQqYzS-19" target="_SefdVnp_jdlIpqQqYzS-27" edge="1">
          <mxGeometry relative="1" as="geometry">
            <mxPoint x="470.42857142857156" y="740" as="targetPoint" />
          </mxGeometry>
        </mxCell>
        <mxCell id="_SefdVnp_jdlIpqQqYzS-19" value="LLM for humen like text&amp;nbsp;" style="rounded=1;whiteSpace=wrap;html=1;" parent="1" vertex="1">
          <mxGeometry x="409.9999999999998" y="640" width="120" height="60" as="geometry" />
        </mxCell>
        <mxCell id="_SefdVnp_jdlIpqQqYzS-20" style="edgeStyle=orthogonalEdgeStyle;rounded=0;orthogonalLoop=1;jettySize=auto;html=1;exitX=0.5;exitY=1;exitDx=0;exitDy=0;" parent="1" source="_SefdVnp_jdlIpqQqYzS-10" target="_SefdVnp_jdlIpqQqYzS-10" edge="1">
          <mxGeometry relative="1" as="geometry" />
        </mxCell>
        <mxCell id="_SefdVnp_jdlIpqQqYzS-23" style="edgeStyle=orthogonalEdgeStyle;rounded=0;orthogonalLoop=1;jettySize=auto;html=1;entryX=0.5;entryY=0;entryDx=0;entryDy=0;" parent="1" source="_SefdVnp_jdlIpqQqYzS-21" target="_SefdVnp_jdlIpqQqYzS-24" edge="1">
          <mxGeometry relative="1" as="geometry">
            <mxPoint x="670.0000000000002" y="360" as="targetPoint" />
          </mxGeometry>
        </mxCell>
        <mxCell id="_SefdVnp_jdlIpqQqYzS-21" value="pytesseract" style="rounded=1;whiteSpace=wrap;html=1;" parent="1" vertex="1">
          <mxGeometry x="610" y="220" width="120" height="60" as="geometry" />
        </mxCell>
        <mxCell id="_SefdVnp_jdlIpqQqYzS-25" style="edgeStyle=orthogonalEdgeStyle;rounded=0;orthogonalLoop=1;jettySize=auto;html=1;entryX=1;entryY=0.5;entryDx=0;entryDy=0;" parent="1" source="_SefdVnp_jdlIpqQqYzS-24" target="_SefdVnp_jdlIpqQqYzS-13" edge="1">
          <mxGeometry relative="1" as="geometry" />
        </mxCell>
        <mxCell id="_SefdVnp_jdlIpqQqYzS-24" value="Text extracted after ocr" style="rounded=1;whiteSpace=wrap;html=1;" parent="1" vertex="1">
          <mxGeometry x="610" y="390" width="120" height="60" as="geometry" />
        </mxCell>
        <mxCell id="_SefdVnp_jdlIpqQqYzS-27" value="OUTPUT" style="text;html=1;align=center;verticalAlign=middle;resizable=0;points=[];autosize=1;strokeColor=none;fillColor=none;" parent="1" vertex="1">
          <mxGeometry x="425" y="750" width="70" height="30" as="geometry" />
        </mxCell>
        <mxCell id="_SefdVnp_jdlIpqQqYzS-30" style="edgeStyle=orthogonalEdgeStyle;rounded=0;orthogonalLoop=1;jettySize=auto;html=1;entryX=0;entryY=0.5;entryDx=0;entryDy=0;" parent="1" source="_SefdVnp_jdlIpqQqYzS-29" target="_SefdVnp_jdlIpqQqYzS-13" edge="1">
          <mxGeometry relative="1" as="geometry">
            <Array as="points">
              <mxPoint x="90" y="70" />
              <mxPoint x="90" y="410" />
            </Array>
          </mxGeometry>
        </mxCell>
        <mxCell id="_SefdVnp_jdlIpqQqYzS-29" value="prompt" style="ellipse;whiteSpace=wrap;html=1;" parent="1" vertex="1">
          <mxGeometry x="250" y="30" width="120" height="80" as="geometry" />
        </mxCell>
      </root>
    </mxGraphModel>
  </diagram>
</mxfile>
